<svg width="101" height="22" viewBox="0 0 101 22" fill="none" xmlns="http://www.w3.org/2000/svg">
  <path fill-rule="evenodd" clip-rule="evenodd" d="M83.302.1c-1.37 0-2.53 1.158-2.53 2.53 0 1.37 1.16 2.529 2.53 2.529 1.372 0 2.53-1.159 2.53-2.53 0-1.371-1.158-2.53-2.53-2.53ZM32.487 21.284h4.17V.146l-4.17 1.252v19.886Zm31.142-14.96c-1.283 0-2.508.4-3.543 1.155l-.22.16v-.9h-4.17v14.546h4.17V13.3a2.81 2.81 0 0 1 2.806-2.806 2.81 2.81 0 0 1 2.806 2.806v7.984h4.17v-8.94c0-3.32-2.7-6.02-6.02-6.02Zm30.73 11.265c1.302 0 2.411-.611 2.934-1.605l3.637 2.082c-1.296 2.245-3.778 3.634-6.512 3.634-4.4 0-7.717-3.305-7.717-7.688 0-4.382 3.318-7.687 7.717-7.687 2.728 0 5.21 1.377 6.511 3.605l-3.639 2.111c-.553-1.008-1.637-1.606-2.931-1.606-2.021 0-3.488 1.505-3.488 3.577 0 2.073 1.467 3.577 3.488 3.577ZM85.387 6.74v14.545h-4.17V6.74h4.17Zm-8.536-4.715-4.17 1.25V6.74h-2.372v3.992h2.372v5.385c0 2.023.418 3.344 1.318 4.156 1.089.984 2.967 1.31 5.905 1.025v-3.76c-1.338.074-2.21.02-2.686-.426-.247-.233-.367-.559-.367-.995v-5.385h3.053V6.74H76.85V2.025ZM42.14 14.012c0 2.246 1.473 3.754 3.665 3.754 2.193 0 3.666-1.508 3.666-3.754s-1.473-3.755-3.666-3.755c-2.192 0-3.665 1.51-3.665 3.755Zm7.33-5.648-.242-.279c-1.014-1.168-2.465-1.76-4.312-1.76-1.852 0-3.591.785-4.897 2.211-1.322 1.444-2.05 3.389-2.05 5.476s.728 4.032 2.05 5.476c1.306 1.426 3.045 2.212 4.897 2.212 1.847 0 3.298-.593 4.312-1.76l.242-.28v1.625h4.17V6.74h-4.17v1.624Zm-30.54 5.648c0 2.246 1.473 3.754 3.666 3.754 2.192 0 3.666-1.508 3.666-3.754s-1.474-3.755-3.666-3.755c-2.193 0-3.666 1.51-3.666 3.755Zm7.331-5.648-.242-.279c-1.015-1.168-2.465-1.76-4.313-1.76-1.851 0-3.59.785-4.896 2.211-1.322 1.444-2.05 3.389-2.05 5.476s.728 4.032 2.05 5.476c1.306 1.426 3.045 2.212 4.896 2.212 1.848 0 3.298-.593 4.313-1.76l.242-.28v1.625h4.17V6.74h-4.17v1.624ZM7.805 16.442l3.183-9.702h4.622L10.23 21.285H5.381L0 6.74h4.622l3.183 9.702Z" fill="#100C2A"/>
</svg>