<?xml version="1.0" encoding="UTF-8" standalone="no" ?>
<!DOCTYPE svg PUBLIC "-//W3C//DTD SVG 1.1//EN" "http://www.w3.org/Graphics/SVG/1.1/DTD/svg11.dtd">
<svg xmlns="http://www.w3.org/2000/svg" xmlns:xlink="http://www.w3.org/1999/xlink" version="1.1" width="900" height="900" viewBox="0 0 900 900" xml:space="preserve">
<desc>Created with Fabric.js 3.6.3</desc>
<defs>
</defs>
<g transform="matrix(7.71 0 0 7.71 450.89 450.11)"  >
<g style=""   >
		<g transform="matrix(1 0 0 1 -9.1 0)" id="XMLID_563_"  >
<path style="stroke: none; stroke-width: 1; stroke-dasharray: none; stroke-linecap: butt; stroke-dashoffset: 0; stroke-linejoin: miter; stroke-miterlimit: 4; fill: rgb(24,158,255); fill-rule: nonzero; opacity: 1;"  transform=" translate(-46, -55)" d="M 87.8 98 c -4.8 -3.6 -11.8 -6.3 -19.3 -9.2 c -8.9 -3.4 -19 -7.3 -26.5 -13.4 C 33.4 68.6 29.2 60 29.2 49.1 c 0 -9.8 4 -18.1 11.7 -24.1 c 8.6 -6.8 21.6 -10.3 37.6 -10.3 c 4.4 0 8.7 0.3 12.6 0.8 c 0.3 0 0.7 -0.1 0.8 -0.5 c 0.2 -0.3 0.1 -0.7 -0.2 -0.9 C 81.7 5 68.6 0 55 0 C 40.3 0 26.5 5.7 16.1 16.1 C 5.7 26.5 0 40.3 0 55 c 0 14.7 5.7 28.5 16.1 38.9 C 26.5 104.3 40.3 110 55 110 c 11.9 0 23.2 -3.7 32.7 -10.8 c 0.2 -0.2 0.3 -0.4 0.3 -0.6 C 88.1 98.4 88 98.2 87.8 98 z" stroke-linecap="round" />
</g>
		<g transform="matrix(1 0 0 1 29.85 0.85)" id="XMLID_562_"  >
<path style="stroke: none; stroke-width: 1; stroke-dasharray: none; stroke-linecap: butt; stroke-dashoffset: 0; stroke-linejoin: miter; stroke-miterlimit: 4; fill: rgb(24,158,255); fill-rule: nonzero; opacity: 1;"  transform=" translate(-84.95, -55.85)" d="M 109.8 49.9 c 0 -0.2 -0.1 -0.4 -0.3 -0.5 C 98.1 39.9 88.8 36 77.5 36 c -6 0 -10.6 1.2 -13.7 3.6 c -2.7 2.1 -4.1 4.9 -4.1 8.3 c 0 9.4 11.6 13.8 24.9 18.8 c 6.9 2.6 14 5.2 20.6 8.9 c 0.1 0.1 0.2 0.1 0.4 0.1 c 0.1 0 0.2 0 0.3 -0.1 c 0.2 -0.1 0.4 -0.2 0.5 -0.5 c 2.5 -6.4 3.8 -13.2 3.8 -20.1 C 110.1 53.4 110 51.7 109.8 49.9 z" stroke-linecap="round" />
</g>
</g>
</g>
</svg>