<svg version="1.1" id="Layer_1" xmlns="http://www.w3.org/2000/svg" xmlns:xlink="http://www.w3.org/1999/xlink" x="0px" y="0px" viewBox="0 0 35.9 56.8" style="enable-background:new 0 0 35.9 56.8;" xml:space="preserve">
 <style type="text/css">
  .st0{opacity:0.7;enable-background:new    ;}
 </style>
 <g>
  <path d="M19.6,53c-0.1,0.1-0.3,0.2-0.4,0.3c-0.2,0.1-0.3,0.2-0.5,0.3c-0.1,0.1-0.3,0.3-0.3,0.4c-0.1,0.1-0.1,0.3-0.1,0.5
		c0,0,0,0.1,0,0.1c0,0,0,0.1,0,0.1c0,0,0,0.1,0,0.1c0,0,0,0.1,0,0.1c-0.1,0.2-0.2,0.3-0.3,0.5c-0.1,0.2-0.2,0.3-0.3,0.4
		c-0.1,0.1-0.2,0.2-0.3,0.3c-0.1,0.1-0.3,0.1-0.5,0.1s-0.4,0-0.6-0.1c-0.2-0.1-0.4-0.1-0.5-0.2c-0.2-0.1-0.3-0.2-0.5-0.3
		c-0.2-0.1-0.3-0.3-0.5-0.4c0,0,0,0,0-0.1c0,0,0,0,0-0.1c0,0,0,0,0-0.1c0,0,0,0,0-0.1c-0.1-0.2-0.1-0.3-0.2-0.4
		c-0.1-0.1-0.2-0.2-0.3-0.3c-0.1-0.1-0.2-0.2-0.3-0.3c-0.1-0.1-0.3-0.2-0.4-0.2c0,0,0,0,0,0c0,0,0,0,0,0c0,0,0,0,0,0c0,0,0,0,0,0
		c0,0,0,0,0,0.1c0,0,0,0,0,0.1c0,0,0,0.1,0,0.1c0,0,0,0.1,0,0.1c0.1,0.4,0.3,0.8,0.6,1.1c0.2,0.3,0.5,0.6,0.8,0.9
		c0.3,0.3,0.6,0.5,1,0.6c0.3,0.2,0.7,0.3,1.1,0.3c0.4,0,0.8,0,1.1-0.2c0.3-0.1,0.6-0.4,0.9-0.7c0.3-0.3,0.4-0.7,0.5-1.1
		c0.1-0.4,0.1-0.9,0-1.4L19.6,53z">
  </path>
  <path d="M4.4,34c0,0-0.1,0-0.1,0.1c0,0-0.1,0-0.1,0.1s-0.1,0-0.1,0.1c0,0-0.1,0.1-0.1,0.1c-0.2,0.1-0.4,0.3-0.6,0.4
		C3.2,34.9,3,35,2.8,35.2s-0.3,0.4-0.5,0.6C2.2,36,2.1,36.3,2,36.6c0.4-0.1,0.7-0.1,1.1,0c0.4,0.1,0.8,0.2,1.1,0.3
		c0.4,0.2,0.8,0.4,1.2,0.6c0.4,0.3,0.8,0.6,1.2,0.9L5,33.8c0,0-0.1,0-0.1,0c0,0-0.1,0-0.1,0c0,0-0.1,0-0.1,0.1C4.5,34,4.5,34,4.4,34
		z">
  </path>
  <path d="M5.7,33.8l1.5,4.5l3.4,0.1c-0.3-0.7-0.7-1.4-1.1-1.9s-0.8-1-1.2-1.4c-0.4-0.4-0.9-0.7-1.3-0.9C6.5,33.9,6.1,33.8,5.7,33.8z
		">
  </path>
  <path d="M7.7,39.6c0.5,0.6,1,1.3,1.5,2.1c0.5,0.8,1,1.7,1.5,2.6c0.5,1,0.9,2,1.3,3.1c0.4,1.1,0.8,2.3,1.1,3.6c0-0.5,0-1.1,0-1.7
		c0-0.6,0-1.1-0.1-1.7c0-0.6-0.1-1.2-0.2-1.8c-0.1-0.6-0.2-1.2-0.3-1.8c-0.1-0.4-0.2-0.8-0.3-1.2s-0.2-0.8-0.3-1.1
		c-0.1-0.4-0.2-0.7-0.3-1.1c-0.1-0.3-0.3-0.7-0.4-1L7.7,39.6z">
  </path>
  <path d="M0,6.7c0.1,0.9,0.2,1.9,0.3,2.8c0.1,0.9,0.3,1.9,0.4,2.9s0.3,1.9,0.5,2.9c0.2,1,0.3,2,0.5,3c0.3,1.3,0.5,2.6,0.8,3.8
		c0.3,1.3,0.6,2.5,0.9,3.7c0.3,1.2,0.6,2.4,1,3.5c0.3,1.1,0.7,2.2,1,3.3c0.2,0,0.3,0,0.5,0c0.2,0,0.3,0,0.5,0c0.2,0,0.3,0.1,0.5,0.1
		c0.2,0.1,0.3,0.1,0.5,0.2c-0.3-0.8-0.7-1.7-1-2.6c-0.3-0.9-0.7-1.8-1-2.7c-0.3-0.9-0.6-1.9-0.9-2.8s-0.6-2-0.9-3
		c-0.4-1.3-0.7-2.6-1.1-3.9C2,16.5,1.7,15.2,1.4,14s-0.5-2.5-0.8-3.7C0.4,9,0.2,7.8,0,6.7z">
  </path>
  <path d="M30.2,25.8c-0.2,0-0.4,0.1-0.6,0.1c-0.2,0-0.4,0.1-0.6,0.1c-0.2,0.1-0.4,0.1-0.6,0.2s-0.4,0.1-0.6,0.2l-0.6,5.7
		c0.6-0.7,1.3-1.4,2-2c0.7-0.6,1.4-1.2,2.1-1.7c0.7-0.5,1.5-1,2.2-1.4c0.8-0.4,1.5-0.8,2.3-1.1c-0.5-0.1-0.9-0.2-1.3-0.3
		c-0.4-0.1-0.9-0.1-1.3-0.1c-0.4,0-0.9,0-1.4,0.1S30.9,25.7,30.2,25.8L30.2,25.8L30.2,25.8L30.2,25.8L30.2,25.8z">
  </path>
  <path d="M25.4,34.4l-8.2,4.1c-0.1,0.5-0.2,0.9-0.3,1.4c-0.1,0.5-0.1,0.9-0.2,1.4c0,0.5-0.1,1,0,1.5c0,0.5,0,1,0.1,1.5
		c0.1,0.7,0.2,1.5,0.4,2.1c0.2,0.7,0.4,1.4,0.6,2c0.3,0.7,0.6,1.3,0.9,1.9c0.3,0.6,0.7,1.1,1.1,1.7c0-1.7,0.2-3.4,0.5-5
		c0.3-1.6,0.7-3.2,1.2-4.6c0.5-1.5,1.1-2.9,1.8-4.2C23.8,36.8,24.6,35.6,25.4,34.4z">
  </path>
  <path class="st0" d="M22.9,0c0.3,1,0.5,2.1,0.7,3.2c0.2,1.1,0.3,2.3,0.4,3.5c0.1,1.2,0.2,2.5,0.2,3.8c0.1,1.3,0.1,2.7,0.1,4.1
		c0.1,3.3-0.2,5.9-0.6,8.2c-0.4,2.3-1.1,4.1-1.8,5.6c-0.7,1.5-1.5,2.8-2.2,4C19,33.5,18.4,34.6,18,36c0,0,0,0.1,0,0.1s0,0.1,0,0.1
		c0,0,0,0.1,0,0.1c0,0,0,0.1,0,0.1l7.8-3.8c0.4-2.5,0.7-4.8,0.8-7c0.1-2.1,0.2-4.1,0.1-6c0-1.8-0.2-3.5-0.3-5
		c-0.2-1.5-0.3-2.9-0.6-4.2c-0.2-0.9-0.3-1.9-0.5-2.8s-0.4-1.8-0.7-2.7C24.3,4,24,3.2,23.8,2.4C23.5,1.6,23.2,0.8,22.9,0z">
  </path>
 </g>
</svg>