<?xml version="1.0" encoding="UTF-8"?>
<svg version="1.1" xmlns="http://www.w3.org/2000/svg" xmlns:xlink="http://www.w3.org/1999/xlink" viewBox="0 0 320 310" xml:space="preserve">
<style type="text/css">
	.st3{fill:#E24329;}
	.st4{fill:#FCA326;}
	.st5{fill:#FC6D26;}
</style>
<g transform="translate(-123, -125)">
	<path class="st3" d="M292.778,434.892L292.778,434.892l62.199-191.322H230.669L292.778,434.892L292.778,434.892z"/>
	<path class="st4" d="M143.549,243.57L143.549,243.57l-18.941,58.126c-1.714,5.278,0.137,11.104,4.661,14.394l163.509,118.801L143.549,243.57L143.549,243.57z"/>
	<path class="st3" d="M143.549,243.57h87.12l-37.494-115.224c-1.919-5.895-10.282-5.895-12.27,0L143.549,243.57L143.549,243.57z"/>
	<path class="st4" d="M442.097,243.57L442.097,243.57l18.873,58.126c1.714,5.278-0.137,11.104-4.661,14.394L292.778,434.892L442.097,243.57L442.097,243.57z"/>
	<path class="st3" d="M442.097,243.57h-87.12l37.425-115.224c1.919-5.895,10.282-5.895,12.27,0L442.097,243.57L442.097,243.57z"/>
	<polygon class="st5" points="292.778,434.892 354.977,243.57 442.097,243.57"/>
	<polygon class="st5" points="292.778,434.892 143.549,243.57 230.669,243.57"/>
</g>
</svg>
