<?xml version="1.0" encoding="UTF-8" standalone="no"?>
<svg
   xmlns:svg="http://www.w3.org/2000/svg"
   xmlns="http://www.w3.org/2000/svg"
   version="1.1"
   id="jira-icon"
   width="120"
   height="120"
   viewBox="0 0 120 120">
  <defs
     id="defs1">
    <linearGradient
       id="linearGradient1"
       spreadMethod="pad"
       gradientTransform="matrix(1.5697812,0,0,1.5697812,-0.00505,-0.0021)"
       gradientUnits="userSpaceOnUse"
       y2="44.671875"
       x2="54.390625"
       y1="57.471561"
       x1="41.590939">
      <stop
         id="stop1"
         offset="0"
         style="stop-opacity:1;stop-color:#0052cc" />
      <stop
         id="stop2"
         offset="1"
         style="stop-opacity:1;stop-color:#2684ff" />
    </linearGradient>
    <linearGradient
       id="linearGradient2"
       spreadMethod="pad"
       gradientTransform="matrix(1.5697812,0,0,1.5697812,-0.00505,-0.0021)"
       gradientUnits="userSpaceOnUse"
       y2="30.988281"
       x2="19"
       y1="18.166172"
       x1="31.825312">
      <stop
         id="stop3"
         offset="0"
         style="stop-opacity:1;stop-color:#0052cc" />
      <stop
         id="stop4"
         offset="1"
         style="stop-opacity:1;stop-color:#2684ff" />
    </linearGradient>
  </defs>
  <path
     id="path1"
     style="fill:#2684ff;fill-opacity:1;fill-rule:nonzero;stroke:none"
     d="M 113.647 56.134 L 62.47 4.956 L 57.51 0 L 1.376 56.134 c -1.835 1.84 -1.835 4.819 0 6.655 l 35.196 35.195 l 20.938 20.943 l 56.137 -56.138 c 1.836 -1.836 1.836 -4.815 0 -6.655 Z M 57.51 77.041 L 39.931 59.464 L 57.51 41.88 L 75.092 59.464 L 57.51 77.041 Z" />
  <path
     d="M 57.51 41.88 C 46.001 30.366 45.942 11.719 57.387 0.138 L 18.911 38.599 L 39.854 59.541 L 57.51 41.88 Z"
     style="fill:url(#linearGradient2);fill-opacity:1;fill-rule:nonzero;stroke:none"
     id="path2" />
  <path
     d="m 75.141 59.414 l -17.631 17.628 c 5.556 5.551 8.681 13.086 8.681 20.943 c 0 7.856 -3.125 15.386 -8.681 20.943 l 38.569 -38.57 l -20.938 -20.943 z"
     style="fill:url(#linearGradient1);fill-opacity:1;fill-rule:nonzero;stroke:none"
     id="path3" />
</svg>
